<svg width="198" height="223" viewBox="0 0 198 223" fill="none" xmlns="http://www.w3.org/2000/svg">
<g filter="url(#filter0_d_91_148)">
<path d="M47.0698 149.614C32.9423 149.614 22.5654 146.052 15.9393 138.927C9.31309 131.803 6 119.991 6 103.493C6 90.3685 8.18789 76.2446 12.5637 61.1208C17.0645 45.9969 24.1907 33.0604 33.9424 22.3112C43.8192 11.4371 56.3214 6 71.4491 6C80.8257 6 88.3896 8.06234 94.1406 12.187C99.8916 16.3117 102.767 22.6237 102.767 31.1231C102.767 36.4977 101.704 40.7473 99.579 43.8721C97.4536 46.8719 94.1406 48.3717 89.6398 48.3717C85.139 48.3717 81.5758 46.7469 78.9504 43.4971C81.2008 42.3722 83.2011 40.1224 84.9514 36.7476C86.7018 33.3729 87.5769 29.8732 87.5769 26.2484C87.5769 22.8737 86.6392 20.1239 84.7639 17.9991C83.0136 15.8742 80.1381 14.8118 76.1374 14.8118C69.5112 14.8118 63.1976 19.374 57.1965 28.4983C51.1955 37.4976 46.3196 48.8717 42.569 62.6206C38.9433 76.3696 37.1305 89.6186 37.1305 102.368C37.1305 111.867 38.7558 119.116 42.0064 124.116C45.2569 129.116 51.133 131.615 59.6345 131.615C67.0108 131.615 73.8245 129.99 80.0756 126.741C86.3267 123.491 91.7026 118.866 96.2034 112.867L100.517 114.742C97.3911 122.616 92.7653 129.178 86.6392 134.428C80.5132 139.677 73.9495 143.552 66.9483 146.052C59.947 148.427 53.3209 149.614 47.0698 149.614Z" fill="url(#paint0_linear_91_148)"/>
<path d="M94.1093 209C89.4835 209 85.4203 208.625 81.9197 207.875C78.419 207.125 75.356 205.313 72.7305 202.438C70.2301 199.563 68.9799 195.126 68.9799 189.127C68.9799 180.752 71.4803 169.503 76.4812 155.379C81.6071 141.255 88.2958 127.069 96.5472 112.82C90.2961 113.195 85.3578 114.132 81.7321 115.632C78.1065 117.132 75.7311 119.444 74.6059 122.569C75.1059 122.569 75.606 123.194 76.1061 124.444C76.7312 125.694 77.0438 127.006 77.0438 128.381C77.0438 130.631 76.0436 132.443 74.0433 133.818C72.0429 135.068 69.5425 135.693 66.5419 135.693C63.0413 135.693 60.2283 134.756 58.103 132.881C55.9776 131.006 54.9149 128.319 54.9149 124.819C54.9149 120.569 56.5402 116.695 59.7907 113.195C63.1663 109.695 67.7922 106.945 73.6682 104.946C79.5442 102.821 86.0454 101.758 93.1716 101.758C95.7971 101.758 99.0477 101.946 102.923 102.321C113.175 86.072 123.99 72.823 135.367 62.5738C146.869 52.1996 157.808 47.0125 168.185 47.0125C174.186 47.0125 179.124 47.8874 183 49.6373L153.557 187.627H126.553L140.993 119.569C136.367 117.445 132.116 115.882 128.24 114.882C124.365 113.882 120.239 113.195 115.863 112.82C108.737 128.194 102.861 143.943 98.235 160.066C93.7342 176.065 91.4838 188.877 91.4838 198.501C91.4838 203.25 92.359 206.75 94.1093 209ZM153.557 60.3239C148.181 63.1987 142.555 68.5733 136.679 76.4477C130.928 84.1971 125.302 93.6339 119.801 104.758C128.803 106.508 136.429 108.695 142.68 111.32L153.557 60.3239Z" fill="url(#paint1_linear_91_148)"/>
<path d="M71.4492 3C81.2511 3.00002 89.4855 5.1567 95.8887 9.74902L96.5068 10.207C102.784 15.014 105.767 22.166 105.767 31.123C105.767 36.8556 104.639 41.7679 102.06 45.5596L102.044 45.583L102.027 45.6064C99.2108 49.5817 94.8671 51.3721 89.6396 51.3721C84.3131 51.372 79.8607 49.3974 76.6172 45.3828L74.2734 42.4814L77.6094 40.8135C79.0694 40.0835 80.6889 38.4495 82.2881 35.3662C83.8282 32.3968 84.5771 29.3684 84.5771 26.248C84.5771 23.4578 83.817 21.4601 82.5146 19.9844L82.4805 19.9463L82.4482 19.9062C81.4895 18.7425 79.6612 17.8116 76.1377 17.8115C71.0434 17.8115 65.5158 21.3087 59.7031 30.1465L59.6982 30.1543L59.6924 30.1631C53.9205 38.8189 49.1589 49.8657 45.4688 63.3848L45.4697 63.3857C41.9025 76.9131 40.1309 89.9042 40.1309 102.367C40.1309 111.6 41.7237 118.177 44.5215 122.48L44.7607 122.834C46.3372 125.074 48.7198 126.76 52.1445 127.717C51.9898 126.787 51.9151 125.819 51.915 124.819C51.915 119.717 53.8958 115.134 57.5928 111.153L57.6318 111.112C61.4179 107.187 66.4948 104.218 72.7012 102.105C78.9326 99.8599 85.767 98.7578 93.1719 98.7578C95.4873 98.7578 98.2249 98.8982 101.372 99.168C111.445 83.4439 122.101 70.4862 133.358 60.3447C145.146 49.7131 156.773 44.0128 168.185 44.0127C174.448 44.0127 179.846 44.9218 184.234 46.9033L186.438 47.8984L185.934 50.2637L156.491 188.253L155.984 190.627H122.85L123.618 187.004L137.553 121.322C134.177 119.868 131.056 118.755 128.183 117.971L127.491 117.787C124.408 116.992 121.144 116.4 117.696 116.016C111.033 130.636 105.508 145.595 101.119 160.894C96.65 176.783 94.4834 189.283 94.4834 198.501C94.4834 202.99 95.3312 205.685 96.4775 207.158L100.244 212H94.1094C89.6288 212 85.5854 211.66 82.002 210.954L81.291 210.809C77.1258 209.916 73.5235 207.754 70.5156 204.461L70.4912 204.435L70.4668 204.407C67.2843 200.748 65.9796 195.455 65.9795 189.127C65.9795 180.242 68.6137 168.611 73.6533 154.378L73.6572 154.367L73.6611 154.355C74.8491 151.082 76.1199 147.807 77.4727 144.529C74.3982 146.258 71.2267 147.71 67.957 148.877L67.9121 148.893C60.6557 151.354 53.7018 152.614 47.0693 152.614C32.7179 152.614 21.5073 149.051 14.0928 141.341L13.7422 140.971C6.34229 133.014 3 120.259 3 103.492C3.00003 90.0366 5.24263 75.6296 9.68164 60.2871L9.68457 60.2764L9.68848 60.2646C14.3061 44.7485 21.6415 31.4061 31.7207 20.2959L31.7217 20.2939L32.2139 19.7588C42.6025 8.59426 55.7534 3 71.4492 3ZM88.8389 116.729C86.772 117.116 84.9945 117.596 83.4932 118.162L82.8789 118.404C80.6651 119.32 79.1804 120.518 78.2373 121.96C78.4709 122.363 78.6666 122.787 78.8369 123.201C78.9412 123.414 79.038 123.63 79.1289 123.847C82.6595 121.959 85.8959 119.591 88.8389 116.729ZM149.028 67.1738C145.883 69.9129 142.564 73.5781 139.084 78.2422C134.069 85.0013 129.12 93.1179 124.244 102.611C130.283 103.928 135.7 105.466 140.483 107.233L149.028 67.1738Z" stroke="#262629" stroke-width="6"/>
</g>
<defs>
<filter id="filter0_d_91_148" x="0" y="0" width="197.877" height="223" filterUnits="userSpaceOnUse" color-interpolation-filters="sRGB">
<feFlood flood-opacity="0" result="BackgroundImageFix"/>
<feColorMatrix in="SourceAlpha" type="matrix" values="0 0 0 0 0 0 0 0 0 0 0 0 0 0 0 0 0 0 127 0" result="hardAlpha"/>
<feOffset dx="8" dy="8"/>
<feComposite in2="hardAlpha" operator="out"/>
<feColorMatrix type="matrix" values="0 0 0 0 0.14902 0 0 0 0 0.14902 0 0 0 0 0.160784 0 0 0 1 0"/>
<feBlend mode="normal" in2="BackgroundImageFix" result="effect1_dropShadow_91_148"/>
<feBlend mode="normal" in="SourceGraphic" in2="effect1_dropShadow_91_148" result="shape"/>
</filter>
<linearGradient id="paint0_linear_91_148" x1="156.5" y1="45.5" x2="34.5" y2="154.5" gradientUnits="userSpaceOnUse">
<stop stop-color="#FFD6A7"/>
<stop offset="0.509615" stop-color="#FACDE6"/>
<stop offset="0.927885" stop-color="#44EBD2"/>
</linearGradient>
<linearGradient id="paint1_linear_91_148" x1="156.5" y1="45.5" x2="34.5" y2="154.5" gradientUnits="userSpaceOnUse">
<stop stop-color="#FFD6A7"/>
<stop offset="0.509615" stop-color="#FACDE6"/>
<stop offset="0.927885" stop-color="#44EBD2"/>
</linearGradient>
</defs>
</svg>
