<svg width="383" height="284" viewBox="0 0 383 284" fill="none" xmlns="http://www.w3.org/2000/svg">
<path d="M371.264 60.26C369.676 60.455 368.275 60.3369 367.061 59.9056C365.911 59.4664 365.274 58.7387 365.149 57.7223C365.063 57.0236 365.338 56.6352 365.973 56.5572C365.909 56.565 366.445 56.7249 367.579 57.037C368.706 57.2855 369.873 57.3357 371.08 57.1875C374.764 56.7352 376.872 54.7354 377.404 51.1881C377.606 49.6803 375.975 47.4302 372.513 44.4379C370.064 42.3527 368.657 39.8173 368.29 36.8318C368.166 35.8154 368.466 34.5856 369.191 33.1424C369.909 31.6357 370.841 30.2962 371.986 29.1239C373.124 27.888 374.265 27.1998 375.408 27.0594C377.441 26.8098 378.647 27.1776 379.026 28.1628C379.113 28.3456 379.168 28.5322 379.191 28.7228C379.278 28.9056 379.333 29.0923 379.357 29.2828C379.482 30.2992 379.163 30.8542 378.401 30.9478C377.956 31.0024 377.587 30.8865 377.294 30.6C376.937 30.3214 376.473 30.2172 375.901 30.2874C375.774 30.303 375.616 30.3225 375.425 30.3459C375.234 30.3693 375.083 30.4523 374.972 30.595C372.826 32.0192 371.718 33.7671 371.65 35.8389C371.615 37.6487 373.285 39.9584 376.66 42.768C379.679 45.2989 381.341 47.8031 381.645 50.2805C381.98 53.012 380.852 55.3751 378.26 57.3699C376.264 58.9691 373.932 59.9324 371.264 60.26Z" fill="#262629"/>
<path d="M356.449 61.9822C353.654 62.3254 351.262 61.7486 349.273 60.2519C347.347 58.7473 346.205 56.5341 345.846 53.612C345.768 52.9768 345.722 52.3376 345.708 51.6946C345.757 51.0438 345.806 50.3929 345.855 49.7421C346.218 46.9248 347.797 43.7649 350.591 40.2623C353.735 36.4588 356.609 34.3971 359.213 34.0774C361.373 33.8122 362.538 34.8943 362.707 37.3238C363.026 40.4442 361.685 43.7039 358.685 47.1029C357.372 48.4892 355.984 49.788 354.521 50.9994C353.121 52.203 351.563 52.91 349.848 53.1206L349.753 53.1323C350.45 57.2379 352.832 59.0411 356.897 58.5419C358.231 58.3781 359.685 57.8772 361.259 57.0392C361.378 56.9601 361.565 56.9049 361.819 56.8737C362.645 56.7723 363.108 57.1345 363.21 57.9603C363.28 58.5321 363.049 59.0118 362.516 59.3996C360.885 60.825 358.863 61.6858 356.449 61.9822ZM351.776 48.3381C353.69 47.6516 355.272 46.6191 356.522 45.2406C358.742 42.8402 359.735 40.6871 359.501 38.7814L359.477 38.5908C359.423 38.1462 359.221 37.8163 358.872 37.6012C358.523 37.3861 358.293 37.3499 358.182 37.4925C356.213 37.7343 354.292 39.421 352.419 42.5525C352.156 43.0361 351.849 43.6864 351.498 44.5033C351.139 45.2566 350.768 46.1727 350.385 47.2515C350.337 47.3863 350.321 47.5173 350.336 47.6443C350.407 48.216 350.886 48.4473 351.776 48.3381Z" fill="#262629"/>
<path d="M335.629 71.2125C333.85 71.4309 332.572 69.4276 331.796 65.2028L331.426 59.8318C331.289 57.1404 330.963 55.5362 330.448 55.0191C324.281 62.031 319.863 65.7007 317.195 66.0283C314.464 66.3637 312.872 64.6892 312.42 61.0049C312.092 58.3369 312.583 55.246 313.892 51.7322C315.154 48.3533 316.588 45.8559 318.195 44.24C320.439 42.0301 322.418 40.8199 324.133 40.6093C325.467 40.4455 326.84 40.5993 328.252 41.0708C328.387 41.1187 328.526 41.1984 328.668 41.3098C328.875 41.4135 329.081 41.5171 329.287 41.6208C329.771 41.8838 330.044 42.0114 330.108 42.0036C330.298 41.9802 330.37 41.7779 330.323 41.3968C330.187 38.1894 330.136 34.6171 330.168 30.6798C330.256 26.6712 330.429 22.2976 330.685 17.559C330.815 15.9955 331.046 14.194 331.375 12.1546C331.769 10.1074 332.266 7.854 332.867 5.39445C333.571 2.72874 334.844 1.28279 336.687 1.0566C339.418 0.721217 341.231 2.88437 342.126 7.54607C342.229 7.85589 342.303 8.20137 342.35 8.58251C342.389 8.90012 342.428 9.21773 342.467 9.53535C343.075 14.4901 342.54 19.8433 340.86 25.5949L333.959 45.0126C334.161 47.1802 334.65 50.3764 335.427 54.6013C335.568 55.2287 335.777 56.1381 336.052 57.3294C336.383 58.4494 336.718 59.6012 337.056 60.7847C337.395 61.9683 337.679 62.9652 337.907 63.7754C338.207 64.6413 338.361 65.106 338.368 65.1695C338.556 66.6941 338.366 68.0392 337.8 69.2049C337.242 70.4341 336.518 71.1033 335.629 71.2125ZM333.904 37.4752L338.639 23.2562C339.589 20.4957 340.111 17.917 340.203 15.5198C340.352 13.0513 340.23 10.745 339.837 8.60083C339.218 5.13047 338.432 3.45379 337.479 3.57078C336.59 3.67998 335.78 5.23014 335.052 8.22126C334.659 9.75249 334.374 11.3673 334.196 13.0657C334.009 14.7006 333.898 16.4229 333.863 18.2328L333.779 18.3397C333.775 20.4037 333.777 23.0471 333.786 26.2701C333.787 29.4295 333.826 33.1645 333.904 37.4752ZM316.335 62.1684C318.518 62.0938 320.754 61.1421 323.045 59.3134C324.396 58.2447 325.59 56.9375 326.625 55.3918C327.716 53.7747 328.689 51.9789 329.543 50.0041L329.638 49.9924C329.719 49.0797 329.709 48.2104 329.608 47.3846C329.179 43.8908 327.694 42.3 325.153 42.6119C323.311 42.8381 321.418 44.2311 319.476 46.791C318.098 48.7011 316.998 50.7705 316.176 52.9994C315.01 56.1086 314.536 58.5526 314.755 60.3312C314.903 61.5382 315.43 62.1506 316.335 62.1684Z" fill="#262629"/>
<path d="M304.4 67.5024C304.082 67.5414 303.781 67.4494 303.496 67.2265C301.562 65.6585 300.353 63.1632 299.868 59.7408C299.837 59.4867 299.834 59.1969 299.858 58.8715C299.875 58.4826 299.856 58.0658 299.801 57.6211L299.651 55.6085L299.616 55.3226C299.476 54.1792 299.012 53.817 298.225 54.236C297.064 55.2813 295.509 56.7941 293.559 58.7744C291.666 60.6834 289.375 63.0281 286.685 65.8086C285.563 67.1715 284.017 67.9739 282.048 68.2157C280.905 68.3561 279.846 67.8735 278.872 66.7679C277.954 65.5911 277.52 64.4192 277.57 63.2524C277.558 61.5774 278.006 59.7169 278.916 57.6708C279.817 55.5612 280.977 53.4522 282.395 51.3437C283.868 49.1639 285.468 47.2265 287.194 45.5315C288.976 43.7651 290.717 42.4551 292.418 41.6015C293.086 41.2616 293.729 40.9892 294.349 40.7841C294.968 40.5791 295.596 40.4376 296.231 40.3596C298.963 40.0242 300.445 40.8093 300.679 42.715C300.757 43.3503 300.542 43.6991 300.034 43.7615C299.843 43.7849 299.653 43.8083 299.462 43.8317C299.264 43.7915 299.062 43.7196 298.856 43.616C297.595 42.8036 296.489 42.4558 295.536 42.5728C294.583 42.6898 293.256 43.4331 291.554 44.8027C290.202 45.8714 288.909 47.1586 287.675 48.6641C286.442 50.1697 285.291 51.8263 284.223 53.6339C283.211 55.3702 282.434 56.9164 281.891 58.2727C281.341 59.5654 281.06 60.696 281.05 61.6644C281.018 61.9263 281.025 62.2478 281.072 62.629C281.197 63.6454 281.672 64.1028 282.498 64.0014C283.514 63.8766 285.307 62.7216 287.876 60.5362C294 55.2707 298.153 50.7629 300.337 47.0128C300.87 46.109 301.306 44.9272 301.642 43.4673C301.851 42.539 302.463 42.0124 303.479 41.8876C304.623 41.7472 305.272 42.3123 305.428 43.5827C305.553 44.5991 305.233 45.928 304.467 47.5696C303.512 52.394 303.144 55.6955 303.362 57.4741C303.824 60.19 304.761 62.2996 306.17 63.803C306.384 63.9702 306.511 64.2126 306.55 64.5302C306.62 65.1019 306.404 65.7087 305.903 66.3506C305.409 67.0561 304.908 67.44 304.4 67.5024Z" fill="#262629"/>
<path d="M268.725 79.4273C266.946 79.6457 265.668 77.6425 264.892 73.4176L264.522 68.0466C264.385 65.3553 264.06 63.751 263.545 63.2339C257.377 70.2458 252.96 73.9155 250.292 74.2431C247.56 74.5785 245.968 72.904 245.516 69.2197C245.188 66.5517 245.679 63.4609 246.989 59.9471C248.25 56.5681 249.685 54.0707 251.292 52.4548C253.535 50.2449 255.514 49.0347 257.229 48.8241C258.563 48.6603 259.936 48.8142 261.348 49.2856C261.483 49.3335 261.622 49.4132 261.765 49.5247C261.971 49.6283 262.177 49.7319 262.383 49.8356C262.867 50.0986 263.14 50.2262 263.204 50.2184C263.394 50.195 263.466 49.9928 263.42 49.6116C263.284 46.4043 263.232 42.8319 263.264 38.8946C263.352 34.886 263.525 30.5124 263.781 25.7739C263.912 24.2103 264.142 22.4088 264.472 20.3694C264.865 18.3222 265.362 16.0688 265.963 13.6093C266.667 10.9436 267.941 9.49763 269.783 9.27144C272.514 8.93606 274.327 11.0992 275.222 15.7609C275.325 16.0707 275.399 16.4162 275.446 16.7973C275.485 17.115 275.524 17.4326 275.563 17.7502C276.172 22.705 275.636 28.0582 273.956 33.8097L267.055 53.2275C267.257 55.3951 267.746 58.5913 268.523 62.8161C268.664 63.4435 268.873 64.3529 269.148 65.5443C269.479 66.6643 269.814 67.816 270.153 68.9996C270.491 70.1831 270.775 71.18 271.003 71.9902C271.303 72.8561 271.457 73.3208 271.465 73.3844C271.652 74.9089 271.462 76.254 270.896 77.4197C270.338 78.6489 269.614 79.3181 268.725 79.4273ZM267 45.69L271.735 31.471C272.685 28.7106 273.207 26.1318 273.3 23.7347C273.448 21.2662 273.326 18.9599 272.934 16.8157C272.314 13.3453 271.528 11.6686 270.575 11.7856C269.686 11.8948 268.877 13.445 268.148 16.4361C267.755 17.9673 267.47 19.5821 267.292 21.2805C267.106 22.9154 266.995 24.6378 266.959 26.4476L266.875 26.5546C266.871 28.6185 266.873 31.262 266.882 34.4849C266.883 37.6443 266.922 41.3794 267 45.69ZM249.431 70.3833C251.614 70.3086 253.851 69.357 256.141 67.5282C257.493 66.4595 258.686 65.1523 259.722 63.6066C260.813 61.9896 261.785 60.1937 262.639 58.2189L262.734 58.2072C262.815 57.2945 262.805 56.4252 262.704 55.5995C262.275 52.1057 260.79 50.5148 258.249 50.8268C256.407 51.053 254.515 52.446 252.572 55.0058C251.195 56.9159 250.095 58.9854 249.272 61.2142C248.106 64.3235 247.633 66.7674 247.851 68.5461C247.999 69.753 248.526 70.3654 249.431 70.3833Z" fill="#262629"/>
<path d="M236.559 42.657C235.606 42.774 235.091 42.2569 235.014 41.1057L235.523 37.3679C235.628 36.6458 236.029 36.2418 236.728 36.156C238.189 35.9766 238.867 36.506 238.761 37.7441C238.806 38.6412 238.705 39.6531 238.456 40.7798C238.208 41.9065 237.575 42.5323 236.559 42.657ZM236.909 73.0811C236.338 73.1513 235.925 72.944 235.672 72.4592C235.333 71.7917 235.068 70.9536 234.88 69.9451C234.692 68.9365 234.551 67.7931 234.459 66.5148C234.407 65.0382 234.53 63.1531 234.829 60.8596C235.191 58.5583 235.732 55.8804 236.454 52.8257C236.63 52.1593 237.035 51.7871 237.671 51.7091C238.877 51.5609 239.357 52.0501 239.108 53.1768C238.955 54.0338 238.834 54.8869 238.745 55.7361C238.656 56.5853 238.567 57.4345 238.478 58.2837C238.34 59.7837 238.245 61.1171 238.195 62.284C238.145 63.4508 238.175 64.4788 238.284 65.3681C238.666 68.4808 238.897 70.0967 238.976 70.216C239.244 70.8278 239.128 71.4547 238.626 72.0966C238.117 72.6749 237.545 73.0031 236.909 73.0811Z" fill="#262629"/>
<path d="M225.431 82.6151C223.279 82.9438 221.373 81.5981 219.712 78.578C218.115 75.55 216.927 70.8599 216.147 64.5076C215.702 60.8868 215.493 56.818 215.519 52.3012C215.6 47.713 215.913 42.6452 216.457 37.0975C217.807 22.3591 220.673 14.7209 225.056 14.1827C226.771 13.9721 228.201 15.3763 229.346 18.3954C230.206 20.6755 230.658 22.7801 230.701 24.7092C230.822 30.9489 228.207 39.846 222.855 51.4003C222.473 51.9631 222.015 52.6964 221.481 53.6002C221.011 54.4962 220.433 55.5666 219.748 56.8114C219.8 58.288 219.849 59.7329 219.893 61.146C220.001 62.5513 220.133 63.8892 220.289 65.1596C220.57 67.4465 221.049 69.7734 221.727 72.1405C222.886 75.8025 224.164 77.5478 225.561 77.3762C226.895 77.2124 228.124 76.191 229.247 74.3121L231.461 69.4945C231.716 68.9473 232.098 68.6425 232.606 68.5801C233.241 68.5021 233.598 68.7807 233.676 69.416C233.691 69.543 233.675 69.6739 233.627 69.8088C233.643 69.9358 233.627 70.0668 233.579 70.2016C233.075 71.8755 232.607 73.3192 232.176 74.5328C231.8 75.6751 231.429 76.5912 231.063 77.281C229.468 80.5719 227.591 82.3499 225.431 82.6151ZM225.546 18.9586C221.397 21.4025 219.412 32.2855 219.592 51.6075C219.76 51.3936 219.999 50.9773 220.31 50.3588C226.128 39.4564 228.671 31.0197 227.938 25.0485C227.883 24.6038 227.793 24.1313 227.667 23.6309C227.533 23.067 227.36 22.4435 227.147 21.7603C226.556 20.092 226.022 19.1581 225.546 18.9586Z" fill="#262629"/>
<path d="M208.371 79.2934C208.053 79.3324 207.752 79.2404 207.467 79.0175C205.533 77.4495 204.324 74.9542 203.839 71.5318C203.808 71.2777 203.805 70.988 203.829 70.6625C203.846 70.2736 203.827 69.8568 203.773 69.4121L203.622 67.3995L203.587 67.1136C203.447 65.9702 202.983 65.608 202.196 66.027C201.035 67.0723 199.48 68.5851 197.531 70.5654C195.637 72.4744 193.346 74.8191 190.657 77.5996C189.534 78.9625 187.989 79.7649 186.019 80.0067C184.876 80.1471 183.817 79.6645 182.843 78.559C181.925 77.3821 181.491 76.2103 181.541 75.0434C181.529 73.3685 181.978 71.5079 182.887 69.4618C183.789 67.3522 184.948 65.2432 186.366 63.1347C187.839 60.9549 189.439 59.0175 191.165 57.3225C192.947 55.5561 194.689 54.2462 196.389 53.3925C197.057 53.0526 197.7 52.7802 198.32 52.5751C198.94 52.3701 199.567 52.2286 200.202 52.1506C202.934 51.8152 204.417 52.6004 204.65 54.506C204.728 55.1413 204.513 55.4901 204.005 55.5525C203.815 55.5759 203.624 55.5993 203.434 55.6227C203.235 55.5826 203.033 55.5107 202.827 55.407C201.566 54.5946 200.46 54.2468 199.507 54.3638C198.554 54.4808 197.227 55.2241 195.525 56.5937C194.173 57.6624 192.88 58.9496 191.647 60.4552C190.413 61.9607 189.262 63.6173 188.195 65.4249C187.183 67.1612 186.405 68.7074 185.862 70.0637C185.312 71.3564 185.032 72.487 185.022 73.4555C184.989 73.7173 184.996 74.0389 185.043 74.42C185.168 75.4364 185.643 75.8939 186.469 75.7925C187.485 75.6677 189.278 74.5126 191.847 72.3272C197.971 67.0617 202.124 62.5539 204.308 58.8039C204.842 57.9001 205.277 56.7182 205.613 55.2583C205.822 54.33 206.434 53.8034 207.451 53.6786C208.594 53.5382 209.244 54.1033 209.4 55.3737C209.524 56.3901 209.204 57.7191 208.438 59.3606C207.483 64.185 207.115 67.4865 207.333 69.2651C207.796 71.981 208.732 74.0907 210.141 75.5941C210.355 75.7612 210.482 76.0036 210.521 76.3212C210.591 76.8929 210.375 77.4997 209.874 78.1416C209.38 78.8471 208.879 79.231 208.371 79.2934Z" fill="#262629"/>
<path d="M152.048 84.3714C151.095 84.4884 150.64 83.6737 150.684 81.9274C150.601 79.6807 150.584 76.9102 150.63 73.6159C150.733 70.2504 150.869 66.3649 151.037 61.9595C151.238 60.9677 151.687 60.4289 152.386 60.3431C153.275 60.2339 153.771 60.5922 153.872 61.418C153.88 61.4815 153.895 61.6085 153.919 61.7991C153.934 61.9262 153.922 62.0889 153.882 62.2872C153.825 62.8745 153.776 63.5254 153.735 64.2397C153.749 64.8828 153.803 65.5854 153.897 66.3477C154.006 67.237 154.155 68.1859 154.343 69.1945C154.595 70.1953 154.918 71.2518 155.313 72.364C155.694 72.3172 157.083 70.7604 159.479 67.6935C161.89 64.7537 163.923 62.9244 165.575 62.2056L165.564 62.1103C165.746 62.0234 165.933 61.9682 166.124 61.9448C166.314 61.9214 166.473 61.9019 166.6 61.8863C167.807 61.7381 168.671 62.2123 169.193 63.309L171.615 72.0066C172.662 75.8113 173.948 77.6201 175.473 77.4329C176.108 77.3549 176.716 77.0546 177.297 76.5319C178.108 75.7875 178.884 75.0152 179.624 74.215C180.356 73.3514 180.989 72.4676 181.523 71.5638C181.888 71.39 182.135 71.2953 182.262 71.2797C182.706 71.2251 182.964 71.4836 183.034 72.0553C183.081 72.4365 182.889 72.9759 182.459 73.6735C181.758 74.7913 181.029 75.9447 180.272 77.1338C179.508 78.2593 178.716 79.1626 177.897 79.8435C176.776 80.6904 175.802 81.1646 174.976 81.266C173.261 81.4766 171.787 80.2389 170.555 77.5531L167.987 70.034C167.096 67.4997 166.221 66.4143 165.363 66.7775C165.299 66.7853 165.204 66.797 165.077 66.8126C165.006 66.7569 164.907 66.7369 164.78 66.7525C164.525 66.7837 164.216 66.8862 163.85 67.06C163.548 67.2261 163.258 67.4874 162.979 67.844L160.985 70.5069C159.265 72.7814 157.855 74.9534 156.755 77.0229C155.655 79.0924 154.794 81.0036 154.171 82.7566C153.772 83.7083 153.064 84.2466 152.048 84.3714Z" fill="#262629"/>
<path d="M132.794 88.863C130.762 89.1126 128.949 88.5291 127.356 87.1127C125.907 85.8076 125.069 84.234 124.842 82.3918C124.421 78.9616 125.529 75.118 128.166 70.8609C129.233 69.0533 130.42 67.4246 131.725 65.9747C133.03 64.5249 134.414 63.1942 135.877 61.9829C136.172 61.7533 136.605 61.6034 137.176 61.5332C139.018 61.3071 139.994 61.6386 140.103 62.5279C140.134 62.782 139.979 63.0913 139.637 63.4557L139.649 63.551C140.765 64.768 141.89 66.0485 143.022 67.3925C144.154 68.7365 144.841 70.3932 145.083 72.3624C145.286 74.014 145.048 75.7519 144.369 77.5763C143.754 79.3928 142.809 81.153 141.535 82.8569C140.317 84.4896 138.937 85.8519 137.395 86.944C135.852 88.0361 134.319 88.6758 132.794 88.863ZM132.527 85.8975C134.107 85.639 135.712 84.797 137.343 83.3717C138.966 81.8829 140.303 80.1711 141.355 78.2365C142.471 76.294 142.963 74.5249 142.831 72.929C142.654 70.436 141.04 67.797 137.99 65.012C135.501 67.3166 133.371 69.9315 131.603 72.8569C129.523 76.4007 128.643 79.4749 128.963 82.0793C129.306 84.8743 130.494 86.1471 132.527 85.8975Z" fill="#262629"/>
<path d="M114.941 57.5897C113.988 57.7067 113.473 57.1895 113.397 56.0383L113.905 52.3005C114.01 51.5784 114.411 51.1744 115.11 51.0886C116.571 50.9092 117.249 51.4386 117.143 52.6767C117.188 53.5738 117.087 54.5858 116.839 55.7124C116.59 56.8391 115.958 57.4649 114.941 57.5897ZM115.292 88.0137C114.72 88.0839 114.307 87.8766 114.055 87.3919C113.715 86.7243 113.451 85.8862 113.262 84.8777C113.074 83.8691 112.933 82.7257 112.841 81.4474C112.789 79.9708 112.912 78.0857 113.211 75.7922C113.573 73.4909 114.114 70.813 114.836 67.7583C115.012 67.0919 115.417 66.7197 116.053 66.6417C117.26 66.4935 117.739 66.9827 117.49 68.1094C117.337 68.9664 117.217 69.8195 117.127 70.6687C117.038 71.5179 116.949 72.3671 116.86 73.2163C116.722 74.7163 116.627 76.0498 116.577 77.2166C116.527 78.3834 116.557 79.4114 116.666 80.3008C117.048 83.4134 117.279 85.0293 117.358 85.1486C117.626 85.7604 117.51 86.3873 117.008 87.0292C116.499 87.6076 115.927 87.9357 115.292 88.0137Z" fill="#262629"/>
<path d="M101.461 92.1301C99.0472 92.4264 96.9694 91.5209 95.2275 89.4135C93.7944 87.7195 92.9453 85.7926 92.6801 83.6329C92.3915 81.2825 92.44 79.052 92.8257 76.9412C93.267 74.7592 93.982 72.7047 94.9705 70.7779C97.1705 66.6389 100.271 64.3238 104.273 63.8324C105.671 63.6608 106.849 64.0642 107.807 65.0427C108.821 65.9499 109.303 66.9869 109.253 68.1537C109.162 70.0349 108.608 71.0379 107.591 71.1627C107.147 71.2173 106.897 71.0222 106.843 70.5776C106.811 70.3235 106.875 70.0577 107.035 69.7802L106.94 69.7919C107.155 69.4431 107.231 69.0146 107.169 68.5064C107.083 67.8076 106.691 67.2432 105.993 66.813C105.352 66.3115 104.681 66.1036 103.983 66.1894C101.187 66.5326 98.9959 68.6394 97.4078 72.5098C96.0113 75.8408 95.5237 79.2214 95.9448 82.6517C96.1554 84.3668 96.7834 85.805 97.8287 86.9662C98.9609 88.3103 100.353 88.8809 102.004 88.6781C104.799 88.3349 107.315 87.0266 109.55 84.7532C109.773 84.4679 110.075 84.3019 110.456 84.2551C111.092 84.1771 111.456 84.5192 111.55 85.2815C111.612 85.7897 111.476 86.2578 111.142 86.6857C109.071 89.7771 105.844 91.5919 101.461 92.1301Z" fill="#262629"/>
<path d="M63.277 95.2708C62.3241 95.3878 61.8694 94.5731 61.913 92.8268C61.8305 90.5801 61.8128 87.8096 61.8596 84.5154C61.9622 81.1498 62.0977 77.2643 62.2661 72.8589C62.4667 71.8671 62.9164 71.3283 63.6152 71.2425C64.5045 71.1333 64.9999 71.4916 65.1012 72.3174C65.109 72.3809 65.1246 72.508 65.148 72.6985C65.1636 72.8256 65.1514 72.9883 65.1113 73.1866C65.0544 73.774 65.0054 74.4248 64.9641 75.1391C64.9786 75.7822 65.0326 76.4848 65.1262 77.2471C65.2354 78.1364 65.3842 79.0854 65.5725 80.0939C65.8243 81.0947 66.1475 82.1512 66.542 83.2634C66.9231 83.2166 68.3117 81.6598 70.7078 78.5929C73.1195 75.6531 75.1517 73.8238 76.8045 73.105L76.7928 73.0097C76.9755 72.9228 77.1622 72.8676 77.3528 72.8442C77.5433 72.8208 77.7021 72.8013 77.8292 72.7857C79.0361 72.6375 79.9004 73.1118 80.4219 74.2084L82.8439 82.906C83.8914 86.7107 85.1774 88.5195 86.702 88.3323C87.3372 88.2543 87.9451 87.954 88.5258 87.4313C89.3371 86.6869 90.1128 85.9146 90.8528 85.1145C91.585 84.2508 92.218 83.3671 92.7518 82.4633C93.1174 82.2894 93.3636 82.1947 93.4907 82.1791C93.9354 82.1245 94.1928 82.383 94.263 82.9548C94.3098 83.3359 94.1181 83.8753 93.6879 84.5729C92.9869 85.6907 92.258 86.8441 91.5013 88.0332C90.7368 89.1587 89.9449 90.062 89.1258 90.7429C88.0047 91.5898 87.0312 92.064 86.2054 92.1654C84.4903 92.376 83.0165 91.1384 81.784 88.4525L79.2165 80.9334C78.325 78.3992 77.4502 77.3137 76.5921 77.677C76.5285 77.6848 76.4333 77.6965 76.3062 77.7121C76.2349 77.6563 76.1357 77.6363 76.0087 77.6519C75.7546 77.6831 75.4447 77.7856 75.0792 77.9594C74.7772 78.1255 74.4869 78.3868 74.2083 78.7434L72.2139 81.4063C70.4943 83.6808 69.0845 85.8528 67.9845 87.9223C66.8845 89.9918 66.023 91.903 65.4 93.656C65.001 94.6078 64.2933 95.146 63.277 95.2708Z" fill="#262629"/>
<path d="M53.9354 97.0952C52.5457 97.3303 51.3644 96.6371 50.3915 95.0155C50.2255 94.7135 50.0004 94.1931 49.7162 93.4542C49.4321 92.7153 49.0571 91.7619 48.5913 90.594C48.1422 89.0371 47.6513 88.4526 47.1186 88.8404C46.2972 90.5532 45.0507 92.4795 43.379 94.6192C41.2615 97.3295 39.5993 98.7587 38.3923 98.9069C37.0584 99.0707 35.7902 98.1947 34.5877 96.279C33.5669 94.7923 32.9668 93.3184 32.7874 91.8574C32.1869 86.9661 32.2956 82.6003 33.1137 78.76C33.3377 77.9587 33.7674 77.5191 34.4026 77.4411C34.9743 77.3709 35.5493 77.5905 36.1277 78.0998C36.7061 78.6091 37.0382 79.2131 37.124 79.9119C37.1708 80.293 37.0103 81.0865 36.6425 82.2923C35.7241 84.7908 35.4444 87.5011 35.8031 90.4232C36.1931 93.5993 36.9916 95.1133 38.1985 94.9651C38.7702 94.8949 40.0546 93.8022 42.0518 91.6871C45.5768 87.8368 47.8654 83.1066 48.9175 77.4966C49.1416 76.6953 49.6029 76.2518 50.3017 76.166C51.4451 76.0256 52.0753 76.4318 52.1923 77.3847C52.2703 78.0199 52.2608 78.7303 52.1638 79.516C52.1304 80.2939 52.0134 81.1788 51.8127 82.1706C51.6756 83.1546 51.5904 84.0356 51.5569 84.8135C51.5235 85.5913 51.5457 86.2979 51.6237 86.9331C51.6783 87.3778 51.7764 87.9138 51.9179 88.5413C52.0516 89.1052 52.2249 89.7287 52.4378 90.4119C52.9894 92.2785 53.4752 93.3473 53.8954 93.6181C53.8954 93.6181 54.1935 93.4203 54.7897 93.0247C55.4417 92.5578 56.1571 92.083 56.9361 91.6005C57.7709 91.0466 58.4546 90.5758 58.9873 90.188C59.5757 89.7289 59.8699 89.4993 59.8699 89.4993C60.5052 89.4213 60.854 89.6364 60.9164 90.1446C60.9788 90.6528 60.5285 91.4496 59.5656 92.535C58.6663 93.6126 57.6599 94.6067 56.5466 95.5172C55.4332 96.4276 54.5628 96.9536 53.9354 97.0952Z" fill="#262629"/>
<path d="M10.2843 104.679L9.97503 104.524C9.51477 104.451 8.79375 103.831 7.81196 102.661C7.71723 102.415 7.61918 101.879 7.51778 101.053C7.47098 100.672 7.41639 100.228 7.35399 99.7194C7.29159 99.2112 7.25706 98.6673 7.25038 98.0878C7.12784 96.0395 7.03151 92.8918 6.9614 88.6446L6.90302 82.6551C6.9454 81.4248 7.33719 78.3138 8.0784 73.3223C7.75298 73.2978 7.46323 73.3011 7.20914 73.3323C6.94725 73.3 6.69316 73.3312 6.44686 73.4259C5.62107 73.5273 5.12627 72.911 4.96248 71.577C4.76749 69.989 5.14641 69.1364 6.09926 69.0194C7.75085 68.8166 8.67194 68.7035 8.86251 68.6801C8.96728 67.958 9.11217 67.0375 9.2972 65.9186C9.48222 64.7997 9.71126 63.5142 9.98433 62.0621C9.85841 61.5617 9.88909 60.2361 10.0764 58.0852C10.2313 56.1963 10.3333 53.0887 10.3825 48.7624C9.80185 49.2851 8.98272 49.966 7.92511 50.8051C6.92321 51.573 5.68282 52.499 4.20395 53.5834C4.0847 53.6625 3.89803 53.7176 3.64394 53.7488C2.69109 53.8658 2.12888 53.2256 1.95728 51.8281C1.82469 50.7482 2.08437 49.9748 2.73632 49.5078L8.37825 45.043C10.3185 43.5151 12.2064 42.3484 14.0419 41.5427C16.5527 40.4606 19.1421 39.7558 21.8101 39.4282C23.017 39.28 24.2992 39.2193 25.6566 39.2461C28.2922 39.1804 30.0742 39.2517 31.0025 39.4602C32.828 39.6229 34.3987 40.0748 35.7149 40.816C36.3334 41.1269 37.114 41.7081 38.0568 42.5595C38.5628 43.5291 38.9249 44.9032 39.1433 46.6819C39.102 47.3962 38.8574 48.5547 38.4094 50.1572C38.0427 50.847 37.5016 51.4293 36.7862 51.9041C36.3415 51.9587 36.0088 51.6126 35.7882 50.8659C35.6935 50.6197 35.6188 50.2742 35.5642 49.8295C35.5408 49.6389 35.5174 49.4484 35.494 49.2578C35.5264 48.9959 35.5626 48.7658 35.6027 48.5674C35.8579 48.0202 35.9504 47.4608 35.8802 46.8891C35.9282 46.7542 35.9404 46.5915 35.917 46.401C35.8702 46.0198 35.6329 45.6621 35.2049 45.3277C34.1273 44.4284 32.7153 43.9569 30.969 43.9134C29.2862 43.8621 27.5755 43.8465 25.837 43.8665C25.6386 43.8264 25.4124 43.8219 25.1583 43.8531C24.9042 43.8843 24.6184 43.9194 24.3008 43.9584C23.0303 44.1144 21.581 44.3891 19.9528 44.7824C18.3168 45.1123 16.907 45.4466 15.7235 45.7853C14.5399 46.1241 13.9482 46.2935 13.9482 46.2935C13.7097 46.4517 13.5386 46.6339 13.435 46.8401C13.4104 47.1655 13.3887 48.0387 13.3697 49.4596C13.4143 50.8727 13.4577 52.8018 13.5 55.2468C13.5523 56.7235 13.5216 58.0491 13.4079 59.2237C13.3578 60.3905 13.2285 61.4381 13.02 62.3664L12.7793 63.5566C12.7291 64.7234 12.4795 66.3661 12.0303 68.4846L13.269 68.3325C13.7772 68.2701 14.3132 68.1721 14.8771 68.0384C15.4332 67.8411 16.0211 67.64 16.6407 67.4349C17.4431 67.143 18.1263 66.9301 18.6902 66.7964C19.3098 66.5914 19.8063 66.4337 20.1796 66.3234C21.6251 66.0169 23.0426 65.7462 24.4323 65.511C25.8778 65.2046 27.2992 64.9656 28.6967 64.794C29.5225 64.6926 30.0134 65.2771 30.1694 66.5476C30.3722 68.1992 29.9654 69.0874 28.9491 69.2122C27.5516 69.3838 26.1619 69.6189 24.78 69.9175C23.4538 70.1448 22.0997 70.4078 20.7178 70.7064L15.8566 72.0771C13.9342 72.7 12.306 73.0934 10.972 73.2572C10.6756 74.5187 10.4621 75.9313 10.3317 77.4948C10.1935 78.9948 10.0708 80.6219 9.96382 82.376C9.9393 82.7014 9.94484 83.7969 9.98047 85.6625C10.0161 87.528 10.0779 90.1319 10.1658 93.4741C10.1959 94.2442 10.25 94.9468 10.3279 95.5821C10.4059 96.2173 10.4761 96.789 10.5385 97.2972C10.5931 97.7419 10.6438 98.1548 10.6906 98.5359C10.7374 98.917 10.8043 99.199 10.8912 99.3818L11.3175 100.49L11.5297 101.431C12.156 101.806 12.4965 102.215 12.5511 102.66C12.6057 103.105 12.3349 103.525 11.7386 103.92C11.1502 104.379 10.6654 104.632 10.2843 104.679Z" fill="#262629"/>
<path d="M175.559 100.483C175.851 99.5617 176.834 99.0525 177.755 99.345C178.677 99.6376 179.188 100.621 178.896 101.542C173.689 117.992 172.346 141.374 174.553 162.267C175.655 172.699 177.635 182.433 180.418 190.309C182.418 195.97 184.786 200.535 187.438 203.731C186.839 196.917 187.046 188.439 189.594 180.593C192.828 170.635 199.864 161.664 213.624 158.56L214.21 158.433C238.77 153.324 260.155 175.883 254.347 197.299L254.204 197.808C250.09 211.91 239.172 220.02 226.538 221.983C215.543 223.692 203.265 220.757 192.93 213.193C197.372 226.409 206.936 237.596 218.436 246.864C231.415 257.324 246.708 265.214 259.41 270.712C260.297 271.096 260.705 272.126 260.322 273.013C259.939 273.9 258.909 274.307 258.022 273.923C245.173 268.361 229.564 260.324 216.242 249.588C203.102 238.999 192.036 225.663 188.198 209.348C183.543 205.747 179.887 199.311 177.118 191.471C174.218 183.264 172.194 173.246 171.073 162.63C168.833 141.428 170.163 117.53 175.559 100.483ZM250.968 196.382C256.017 177.736 237.194 157.226 214.929 161.859L214.399 161.974C202.068 164.755 195.854 172.654 192.924 181.677C190.045 190.542 190.369 200.457 191.401 207.457C201.699 216.663 214.69 220.283 225.996 218.526C237.42 216.751 247.145 209.503 250.843 196.825L250.968 196.382Z" fill="#262629"/>
<path d="M254.248 254.805C255.245 254.524 256.278 255.052 256.649 255.995L256.715 256.189L261.748 274.086L241.359 280.147C240.301 280.462 239.187 279.859 238.872 278.801C238.557 277.742 239.16 276.628 240.219 276.313L256.829 271.375L252.863 257.271L252.818 257.072C252.644 256.074 253.251 255.085 254.248 254.805Z" fill="#262629"/>
</svg>
